<svg width="375" height="17" viewBox="0 0 375 17" fill="none" xmlns="http://www.w3.org/2000/svg">
<path d="M106 0H52V7.79167C52 7.79167 57 17 79 17C101 17 106 7.79167 106 7.79167V0Z" fill="#D70214"/>
<path d="M160.5 0H106.5V7.79167C106.5 7.79167 111.5 17 133.5 17C155.5 17 160.5 7.79167 160.5 7.79167V0Z" fill="#F7283A"/>
<path d="M52 0H-2V7.79167C-2 7.79167 3 17 25 17C47 17 52 7.79167 52 7.79167V0Z" fill="#F7283A"/>
<path d="M214.5 0H160.5V7.79167C160.5 7.79167 165.5 17 187.5 17C209.5 17 214.5 7.79167 214.5 7.79167V0Z" fill="#D70214"/>
<path d="M269 0H215V7.79167C215 7.79167 220 17 242 17C264 17 269 7.79167 269 7.79167V0Z" fill="#F7283A"/>
<path d="M323.5 0H269.5V7.79167C269.5 7.79167 274.5 17 296.5 17C318.5 17 323.5 7.79167 323.5 7.79167V0Z" fill="#D70214"/>
<path d="M378 0H324V7.79167C324 7.79167 329 17 351 17C373 17 378 7.79167 378 7.79167V0Z" fill="#F7283A"/>
</svg>
